# xmcd CD database file
#
# Track frame offsets:
#	150
#	24675
#	48975
#	73500
#
# Disc length: 1302 seconds
#
# Revision: 1
# Processed by: cddbd v1.5.1PL0 Copyright (c) Steve Scherf et al.
# Submitted via: freeDBTagger 0.5
#
DISCID=2f051404
DTITLE=Tourbillon - HEAVEN [MAXI]
DYEAR=2005
DGENRE=misc
TTITLE0=HEAVEN
TTITLE1=Crisis of my life
TTITLE2=HEAVEN -instrumental-
TTITLE3=Crisis of my life -instrumenta
EXTD=
EXTT0=
EXTT1=
EXTT2=
EXTT3=
PLAYORDER=
